<svg width="97" height="97" viewBox="0 0 97 97" fill="none" xmlns="http://www.w3.org/2000/svg">
<g clip-path="url(#clip0_53_1660)">
<path d="M80.4433 67.8595L80.8432 68.2594C81.7512 69.1751 82.8759 69.8463 84.1129 70.2106C85.3499 70.5749 86.6589 70.6205 87.9182 70.3431C89.1572 70.083 90.3109 69.5156 91.2733 68.6931C92.2356 67.8705 92.9757 66.8192 93.4255 65.6358C95.6336 59.8378 96.6892 53.6646 96.533 47.4623C96.0829 35.2801 91.0723 23.7116 82.4942 15.0499C73.9161 6.38809 62.3969 1.26533 50.2196 0.696957C43.7804 0.473061 37.3621 1.548 31.3473 3.85768C25.3325 6.16736 19.8443 9.66449 15.21 14.1406C10.5756 18.6167 6.89001 23.9801 4.37283 29.9111C1.85565 35.842 0.558461 42.2191 0.558594 48.6622C0.573413 61.3862 5.63458 73.5849 14.6318 82.5821C23.6291 91.5794 35.8278 96.6406 48.5518 96.6554C49.9036 96.6554 51.2314 96.5674 52.5512 96.4554C53.5527 96.371 54.4857 95.9126 55.1645 95.1716C55.8433 94.4305 56.2183 93.461 56.2147 92.456L56.0867 78.106C56.0544 75.2703 56.8679 72.4893 58.4234 70.1181C59.9789 67.7468 62.2058 65.893 64.8198 64.7934C67.4338 63.6937 70.3163 63.398 73.0991 63.9441C75.8819 64.4903 78.4388 65.8534 80.4433 67.8595ZM68.677 32.8644C69.8237 32.5601 71.0349 32.6027 72.1575 32.9867C73.2801 33.3708 74.2635 34.0791 74.9836 35.022C75.7036 35.965 76.1279 37.1003 76.2028 38.2844C76.2776 39.4684 75.9997 40.6481 75.4042 41.6743C74.8086 42.7004 73.9222 43.5269 72.8569 44.0493C71.7917 44.5717 70.5954 44.7664 69.4195 44.609C68.2435 44.4516 67.1407 43.949 66.2504 43.1648C65.36 42.3806 64.7222 41.35 64.4176 40.2034C64.2152 39.4418 64.1649 38.6478 64.2695 37.8668C64.374 37.0858 64.6314 36.3331 65.027 35.6515C65.4225 34.97 65.9484 34.3731 66.5747 33.8949C67.201 33.4167 67.9153 33.0665 68.677 32.8644ZM31.7622 68.4594C30.6154 68.7637 29.4042 68.7211 28.2816 68.337C27.1591 67.953 26.1756 67.2447 25.4556 66.3017C24.7355 65.3588 24.3112 64.2235 24.2364 63.0394C24.1615 61.8553 24.4394 60.6756 25.035 59.6495C25.6305 58.6234 26.517 57.7969 27.5822 57.2745C28.6475 56.7521 29.8437 56.5573 31.0196 56.7148C32.1956 56.8722 33.2985 57.3748 34.1888 58.159C35.0791 58.9432 35.7169 59.9738 36.0216 61.1204C36.2239 61.882 36.2742 62.6759 36.1697 63.4569C36.0651 64.238 35.8077 64.9907 35.4122 65.6722C35.0166 66.3538 34.4907 66.9507 33.8644 67.4289C33.2382 67.9071 32.5238 68.2573 31.7622 68.4594ZM31.7622 44.4628C30.6154 44.767 29.4042 44.7245 28.2816 44.3404C27.1591 43.9564 26.1756 43.2481 25.4556 42.3051C24.7355 41.3622 24.3112 40.2269 24.2364 39.0428C24.1615 37.8587 24.4394 36.679 25.035 35.6529C25.6305 34.6268 26.517 33.8003 27.5822 33.2779C28.6475 32.7555 29.8437 32.5607 31.0196 32.7182C32.1956 32.8756 33.2985 33.3782 34.1888 34.1624C35.0791 34.9466 35.7169 35.9771 36.0216 37.1238C36.2239 37.8854 36.2742 38.6793 36.1697 39.4603C36.0651 40.2414 35.8077 40.9941 35.4122 41.6756C35.0166 42.3572 34.4907 42.9541 33.8644 43.4323C33.2382 43.9105 32.5238 44.2607 31.7622 44.4628ZM51.7594 32.4645C50.6126 32.7687 49.4014 32.7262 48.2788 32.3421C47.1562 31.9581 46.1728 31.2498 45.4527 30.3068C44.7327 29.3639 44.3084 28.2286 44.2336 27.0445C44.1587 25.8604 44.4366 24.6807 45.0322 23.6546C45.6277 22.6285 46.5141 21.802 47.5794 21.2796C48.6447 20.7572 49.8409 20.5624 51.0168 20.7199C52.1928 20.8773 53.2956 21.3799 54.186 22.1641C55.0763 22.9483 55.7141 23.9788 56.0187 25.1255C56.2211 25.8871 56.2714 26.681 56.1669 27.462C56.0623 28.2431 55.8049 28.9958 55.4093 29.6773C55.0138 30.3588 54.4879 30.9558 53.8616 31.434C53.2353 31.9122 52.521 32.2624 51.7594 32.4645Z" fill="#FF782D"/>
</g>
<defs>
<clipPath id="clip0_53_1660">
<rect width="95.9864" height="95.9864" fill="white" transform="translate(0.230469 0.667969)"/>
</clipPath>
</defs>
</svg>
